<svg xmlns="http://www.w3.org/2000/svg" xmlns:xlink="http://www.w3.org/1999/xlink" version="1.1" width="202" height="50" viewBox="0 0 202 50" xml:space="preserve">
<desc>Created with Fabric.js 3.5.0</desc>
<defs>
</defs>
<rect x="0" y="0" width="100%" height="100%" fill="#ffffff"/>
<g transform="matrix(0.196 0 0 0.196 76.9057 32.3542)" id="389744">
<g style="" vector-effect="non-scaling-stroke">
		<g transform="matrix(1 0 0 1 -162.8462 125.1518)" id="Layer_1">
<path style="stroke: none; stroke-width: 1; stroke-dasharray: none; stroke-linecap: butt; stroke-dashoffset: 0; stroke-linejoin: miter; stroke-miterlimit: 4; is-custom-font: none; font-file-url: none; fill: rgb(153,15,17); fill-rule: nonzero; opacity: 1;" transform=" translate(-462.1538, -750.1518)" d="M 479.84082 748.230225 C 491.942444 757.976196 505.098938 757.573608 516.185913 747.247498 C 519.473755 744.185364 522.512695 740.857849 525.733154 737.721313 C 548.441528 715.605225 577.743103 715.852478 600.180969 738.331604 C 602.651611 740.806946 605.06604 743.339783 607.576904 745.773376 C 614.547546 752.529419 617.881165 754.114868 627.638672 755.331116 C 627.638672 762.998596 627.638672 770.713867 627.638672 778.635681 C 615.048706 778.688782 604.251099 774.648804 595.113525 766.429321 C 589.6745 761.536804 584.806213 755.986694 579.201721 751.30658 C 568.529419 742.394653 555.084167 743.031494 544.754517 752.443726 C 537.999817 758.598633 531.785339 765.518616 524.378967 770.751465 C 506.979095 783.045288 482.095062 781.341248 465.921295 767.36615 C 460.007812 762.256592 454.765198 756.368408 448.830597 751.286011 C 438.902679 742.783569 425.536499 742.928467 415.576508 751.517761 C 411.04657 755.424255 406.980774 759.865295 402.647339 764.004028 C 381.811401 783.903992 352.730011 783.956543 331.765381 764.116943 C 327.654053 760.226135 323.678894 756.191833 319.61792 752.247375 C 313.310394 746.120789 305.465332 744.586609 296.668854 745.11499 C 296.668854 737.218384 296.668854 729.673706 296.668854 721.657959 C 310.010803 720.720947 322.167603 723.541382 332.480499 732.169434 C 338.083923 736.857422 343.025818 742.326782 348.425964 747.268982 C 360.28067 758.118225 374.111847 757.990051 385.965942 747.049927 C 391.951691 741.525635 397.441589 735.323486 403.986328 730.572021 C 422.729889 716.964172 447.940887 718.613342 465.214783 734.08606 C 470.17334 738.527588 474.787354 743.353821 479.84082 748.230225 z" stroke-linecap="round"/>
</g>
		<g transform="matrix(1 0 0 1 -280.8459 -96.7604)" id="Layer_1">
<path style="stroke: none; stroke-width: 1; stroke-dasharray: none; stroke-linecap: butt; stroke-dashoffset: 0; stroke-linejoin: miter; stroke-miterlimit: 4; is-custom-font: none; font-file-url: none; fill: rgb(153,15,17); fill-rule: nonzero; opacity: 1;" transform=" translate(-344.1541, -528.2397)" d="M 394.87027 545.984375 C 395.647644 553.713867 396.391541 560.99054 397.1745 568.649048 C 388.34964 568.649048 379.766083 568.649048 370.639618 568.649048 C 369.532043 557.062439 368.412933 545.354919 367.293823 533.647339 C 366.916992 533.562927 366.540161 533.478516 366.163361 533.394104 C 361.693665 545.175537 357.223999 556.95697 352.785309 568.656677 C 352.32663 568.784668 352.013275 568.949524 351.700836 568.947754 C 346.707947 568.919678 340.591187 570.615906 337.041687 568.330139 C 333.561829 566.089294 332.626587 559.820435 330.695892 555.268005 C 327.659241 548.107788 324.724213 540.90448 320.518158 533.809937 C 319.572784 545.255005 318.62738 556.700012 317.646179 568.57843 C 308.98938 568.57843 300.292725 568.57843 291.133728 568.57843 C 294.070129 541.414978 296.994507 514.362793 299.95282 486.996796 C 308.303925 486.996796 316.288757 486.835327 324.254028 487.156891 C 325.570343 487.210022 327.419739 489.142578 327.974609 490.604431 C 332.692932 503.035828 337.163788 515.561096 341.722809 528.053162 C 342.332855 529.724792 343.020721 531.368042 344.202606 534.371338 C 350.263336 517.833374 355.870392 502.533417 361.567505 486.987671 C 369.675903 486.987671 377.667328 486.835602 385.63916 487.162415 C 386.750824 487.208008 388.539246 489.51767 388.707336 490.934357 C 390.610229 506.969971 392.251678 523.036499 393.981964 539.092834 C 394.213867 541.244812 394.549316 543.38562 394.87027 545.984375 z" stroke-linecap="round"/>
</g>
		<g transform="matrix(1 0 0 1 -190.9851 19.9753)" id="Layer_1">
<path style="stroke: none; stroke-width: 1; stroke-dasharray: none; stroke-linecap: butt; stroke-dashoffset: 0; stroke-linejoin: miter; stroke-miterlimit: 4; is-custom-font: none; font-file-url: none; fill: rgb(153,15,17); fill-rule: nonzero; opacity: 1;" transform=" translate(-434.015, -644.9753)" d="M 466.255615 614.754517 C 484.833038 633.746887 481.899109 664.312256 460.829773 679.770935 C 445.614929 690.934082 421.771973 690.837097 406.295135 678.871704 C 390.751495 666.854553 385.248138 646.205566 392.823639 628.325012 C 404.826782 599.993713 442.124298 592.949707 466.255615 614.754517 M 449.321625 634.367981 C 443.349304 626.171875 434.86615 623.714111 426.27124 627.689758 C 418.325623 631.365051 414.15271 640.891296 416.514801 649.962769 C 418.914032 659.177063 426.357635 664.637695 435.606354 663.968567 C 449.117188 662.991028 456.072205 648.741943 449.321625 634.367981 z" stroke-linecap="round"/>
</g>
		<g transform="matrix(1 0 0 1 -81.6305 -97.1476)" id="Layer_1">
<path style="stroke: none; stroke-width: 1; stroke-dasharray: none; stroke-linecap: butt; stroke-dashoffset: 0; stroke-linejoin: miter; stroke-miterlimit: 4; is-custom-font: none; font-file-url: none; fill: rgb(153,15,17); fill-rule: nonzero; opacity: 1;" transform=" translate(-543.3695, -527.8524)" d="M 578.192444 489.014465 C 569.977966 501.984528 561.967224 514.622131 553.842102 527.440186 C 563.518127 541.051575 573.125671 554.566711 583.358032 568.960693 C 572.180847 568.960693 561.96521 569.042664 551.755432 568.837524 C 550.700256 568.816345 549.419678 567.253784 548.684265 566.120483 C 543.431213 558.025879 538.299744 549.852417 533.109497 541.716797 C 532.352905 540.530823 531.489502 539.412964 529.661316 538.508606 C 529.661316 548.530945 529.661316 558.553284 529.661316 568.785645 C 520.56189 568.785645 512.133667 568.785645 503.380981 568.785645 C 503.380981 541.616699 503.380981 514.579285 503.380981 487.258179 C 511.93689 487.258179 520.365417 487.258179 529.520691 487.258179 C 529.520691 497.771698 529.520691 508.268097 529.520691 518.764465 C 529.944031 518.865173 530.367371 518.96582 530.790649 519.066528 C 535.537354 510.794434 540.689392 502.721649 544.888306 494.180298 C 547.694275 488.472321 551.164551 486.157654 557.574097 486.845673 C 563.666992 487.499725 569.886108 486.929871 576.045959 487.067657 C 576.841003 487.08548 577.613403 488.119019 578.192444 489.014465 z" stroke-linecap="round"/>
</g>
		<g transform="matrix(1 0 0 1 33.5772 -97.1085)" id="Layer_1">
<path style="stroke: none; stroke-width: 1; stroke-dasharray: none; stroke-linecap: butt; stroke-dashoffset: 0; stroke-linejoin: miter; stroke-miterlimit: 4; is-custom-font: none; font-file-url: none; fill: rgb(153,15,17); fill-rule: nonzero; opacity: 1;" transform=" translate(-658.5771, -527.8915)" d="M 617.245972 563.067261 C 625.957214 537.554504 634.538757 512.403137 643.2099 486.989105 C 652.666565 486.989105 661.978149 486.846954 671.275024 487.152496 C 672.570801 487.195068 674.439148 489.217041 674.954163 490.700531 C 682.421204 512.209839 689.704895 533.782776 697.025757 555.342773 C 698.506897 559.704712 699.960327 564.07605 701.545837 568.79834 C 691.83783 568.79834 682.708679 568.79834 673.253845 568.79834 C 672.938416 568.086304 672.445312 567.244995 672.182068 566.337036 C 669.250244 556.224121 669.17749 557.028015 659.001587 555.989624 C 648.629822 554.931274 642.908386 557.96167 643.246216 568.826843 C 633.60144 568.826843 624.804993 568.826843 615.608459 568.826843 C 616.162598 566.843201 616.639465 565.135925 617.245972 563.067261 M 661.758362 527.549988 C 660.572388 523.569763 659.386353 519.589539 658.200378 515.609314 C 657.888611 515.669006 657.576843 515.728638 657.265076 515.78833 C 655.658386 521.909241 654.051636 528.030151 652.363342 534.461914 C 656.438782 534.461914 659.66864 534.461914 663.335266 534.461914 C 662.805542 532.131104 662.372131 530.22406 661.758362 527.549988 z" stroke-linecap="round"/>
</g>
		<g transform="matrix(1 0 0 1 197.6401 20.0324)" id="Layer_1">
<path style="stroke: none; stroke-width: 1; stroke-dasharray: none; stroke-linecap: butt; stroke-dashoffset: 0; stroke-linejoin: miter; stroke-miterlimit: 4; is-custom-font: none; font-file-url: none; fill: rgb(153,15,17); fill-rule: nonzero; opacity: 1;" transform=" translate(-822.6401, -645.0324)" d="M 849.762695 615.012207 C 849.762695 619.157776 849.762695 622.813416 849.762695 627.367615 C 842.427063 627.367615 835.353943 627.392029 828.281006 627.36084 C 821.075439 627.329102 821.075562 627.305115 821.842163 635.067871 C 829.495728 635.067871 837.229187 635.067871 845.347412 635.067871 C 845.347412 641.871216 845.347412 648.0672 845.347412 654.841064 C 837.375061 654.841064 829.643066 654.841064 822.004028 654.841064 C 820.921326 662.578064 820.949646 662.612976 827.640991 662.612305 C 834.942871 662.611511 842.244751 662.612183 849.86853 662.612183 C 849.86853 670.403442 849.86853 677.828552 849.86853 685.618408 C 831.889221 685.618408 813.831604 685.618408 795.411621 685.618408 C 795.411621 658.726929 795.411621 631.81543 795.411621 604.446411 C 813.158569 604.446411 831.048706 604.446411 849.762695 604.446411 C 849.762695 607.68512 849.762695 611.10376 849.762695 615.012207 z" stroke-linecap="round"/>
</g>
		<g transform="matrix(1 0 0 1 102.4863 19.969)" id="Layer_1">
<path style="stroke: none; stroke-width: 1; stroke-dasharray: none; stroke-linecap: butt; stroke-dashoffset: 0; stroke-linejoin: miter; stroke-miterlimit: 4; is-custom-font: none; font-file-url: none; fill: rgb(153,15,17); fill-rule: nonzero; opacity: 1;" transform=" translate(-727.4863, -644.969)" d="M 700.086914 617.014648 C 700.086487 612.560608 700.086487 608.603821 700.086487 604.333374 C 718.422241 604.333374 736.294617 604.333374 754.495605 604.333374 C 754.495605 611.911621 754.495605 619.320312 754.495605 627.290833 C 745.352661 627.290833 736.26947 627.290833 726.809204 627.290833 C 726.809204 630.074219 726.809204 632.303406 726.809204 635.139526 C 734.610779 635.139526 742.339661 635.139526 750.354919 635.139526 C 750.354919 641.956177 750.354919 648.168884 750.354919 654.795044 C 742.392456 654.795044 734.799011 654.795044 726.809021 654.795044 C 726.809021 657.403748 726.809021 659.608337 726.809021 662.402222 C 736.143311 662.402222 745.360352 662.402222 754.886047 662.402222 C 754.886047 670.393188 754.886047 677.810242 754.886047 685.604614 C 736.95697 685.604614 718.924438 685.604614 700.087341 685.604614 C 700.087341 662.955383 700.087341 640.233643 700.086914 617.014648 z" stroke-linecap="round"/>
</g>
		<g transform="matrix(1 0 0 1 -302.9977 19.9827)" id="Layer_1">
<path style="stroke: none; stroke-width: 1; stroke-dasharray: none; stroke-linecap: butt; stroke-dashoffset: 0; stroke-linejoin: miter; stroke-miterlimit: 4; is-custom-font: none; font-file-url: none; fill: rgb(153,15,17); fill-rule: nonzero; opacity: 1;" transform=" translate(-322.0023, -644.9828)" d="M 306.439514 678.569641 C 289.592194 664.100525 285.763641 641.803711 296.634247 622.774353 C 306.273712 605.900146 329.117523 597.616028 347.92453 604.008301 C 351.220154 605.128296 352.755188 606.632751 352.561768 610.382019 C 352.221893 616.969971 352.466827 623.588074 352.466827 630.885193 C 344.537842 626.887756 336.939392 623.95282 329.002747 627.205933 C 325.528809 628.629944 322.085419 631.441223 319.940063 634.532898 C 314.754608 642.00592 316.240997 652.823303 322.495544 658.828247 C 330.07431 666.104614 341.294342 665.732788 353.460144 657.606628 C 353.460144 665.969116 353.587433 674.140137 353.29364 682.296021 C 353.25824 683.278564 351.07663 684.542664 349.663971 685.061584 C 334.242401 690.726624 319.921112 688.470276 306.439514 678.569641 z" stroke-linecap="round"/>
</g>
		<g transform="matrix(1 0 0 1 -80.6071 20.0863)" id="Layer_1">
<path style="stroke: none; stroke-width: 1; stroke-dasharray: none; stroke-linecap: butt; stroke-dashoffset: 0; stroke-linejoin: miter; stroke-miterlimit: 4; is-custom-font: none; font-file-url: none; fill: rgb(153,15,17); fill-rule: nonzero; opacity: 1;" transform=" translate(-544.3929, -645.0863)" d="M 569.362061 627.276489 C 562.747437 627.349487 556.58252 627.370117 550.417603 627.379456 C 542.576904 627.391357 542.392883 627.628906 544.182495 636.265625 C 551.471008 636.265625 558.888 636.265625 566.596008 636.265625 C 566.596008 643.368347 566.596008 649.921509 566.596008 656.916077 C 559.010742 656.916077 551.579895 656.916077 543.553833 656.916077 C 543.553833 666.714539 543.553833 676.096741 543.553833 685.738525 C 534.530762 685.738525 526.109802 685.738525 517.365234 685.738525 C 517.365234 658.700562 517.365234 631.782471 517.365234 604.434082 C 534.957397 604.434082 552.656189 604.434082 571.420593 604.434082 C 570.88031 612.085876 570.346069 619.652466 569.362061 627.276489 z" stroke-linecap="round"/>
</g>
		<g transform="matrix(1 0 0 1 11.0594 20.0155)" id="Layer_1">
<path style="stroke: none; stroke-width: 1; stroke-dasharray: none; stroke-linecap: butt; stroke-dashoffset: 0; stroke-linejoin: miter; stroke-miterlimit: 4; is-custom-font: none; font-file-url: none; fill: rgb(153,15,17); fill-rule: nonzero; opacity: 1;" transform=" translate(-636.0594, -645.0155)" d="M 635.436462 663.031372 C 635.435913 670.820984 635.435913 678.115295 635.435913 685.693237 C 626.616821 685.693237 618.203247 685.693237 609.421021 685.693237 C 609.421021 658.701294 609.421021 631.684509 609.421021 604.337769 C 627.063293 604.337769 644.748413 604.337769 662.697876 604.337769 C 662.697876 612.004211 662.697876 619.421692 662.697876 627.315796 C 653.810059 627.315796 645.03833 627.315796 635.835205 627.315796 C 635.835205 630.337097 635.835205 632.90094 635.835205 636.152344 C 643.196045 636.152344 650.746643 636.152344 658.599243 636.152344 C 658.599243 643.377502 658.599243 649.925476 658.599243 656.905884 C 651.033813 656.905884 643.612 656.905884 635.720764 656.905884 C 635.612976 659.044006 635.525024 660.790039 635.436462 663.031372 z" stroke-linecap="round"/>
</g>
		<g transform="matrix(1 0 0 1 -175.9304 -97.2258)" id="Layer_1">
<path style="stroke: none; stroke-width: 1; stroke-dasharray: none; stroke-linecap: butt; stroke-dashoffset: 0; stroke-linejoin: miter; stroke-miterlimit: 4; is-custom-font: none; font-file-url: none; fill: rgb(153, 15, 17); fill-rule: nonzero; opacity: 1;" transform=" translate(-449.0696, -527.7742)" d="M 440.214355 486.9776 C 447.674255 486.969971 454.656799 486.969971 462.053436 486.969971 C 462.053436 514.297302 462.053436 541.326843 462.053436 568.683838 C 453.662994 568.683838 445.255524 568.683838 436.515076 568.683838 C 436.388214 567.713806 436.120422 566.616394 436.119385 565.518738 C 436.096588 540.873779 436.108154 516.228882 436.096527 491.583923 C 436.095337 489.048828 435.675323 486.266083 440.214355 486.9776 z" stroke-linecap="round"/>
</g>
		<g transform="matrix(1 0 0 1 -191.0616 19.9297)" id="Layer_1">
<path style="stroke: none; stroke-width: 1; stroke-dasharray: none; stroke-linecap: butt; stroke-dashoffset: 0; stroke-linejoin: miter; stroke-miterlimit: 4; is-custom-font: none; font-file-url: none; fill: rgb(255,255,255); fill-rule: nonzero; opacity: 1;" transform=" translate(-433.9385, -644.9297)" d="M 449.535217 634.68103 C 456.072205 648.741943 449.117188 662.991028 435.606354 663.968567 C 426.357635 664.637695 418.914032 659.177063 416.514801 649.962769 C 414.15271 640.891296 418.325623 631.365051 426.27124 627.689758 C 434.86615 623.714111 443.349304 626.171875 449.535217 634.68103 z" stroke-linecap="round"/>
</g>
		<g transform="matrix(1 0 0 1 32.8493 -99.9644)" id="Layer_1">
<path style="stroke: none; stroke-width: 1; stroke-dasharray: none; stroke-linecap: butt; stroke-dashoffset: 0; stroke-linejoin: miter; stroke-miterlimit: 4; is-custom-font: none; font-file-url: none; fill: rgb(255, 255, 255); fill-rule: nonzero; opacity: 1;" transform=" translate(-657.8493, -525.0356)" d="M 661.848511 527.933472 C 662.372131 530.22406 662.805542 532.131104 663.335266 534.461914 C 659.66864 534.461914 656.438782 534.461914 652.363342 534.461914 C 654.051636 528.030151 655.658386 521.909241 657.265076 515.78833 C 657.576843 515.728638 657.888611 515.669006 658.200378 515.609314 C 659.386353 519.589539 660.572388 523.569763 661.848511 527.933472 z" stroke-linecap="round"/>
</g>
</g>
</g>
<g transform="matrix(0.2702 0 0 0.2702 160.9549 12.3333)" id="440460">
<path style="stroke: rgb(153,15,17); stroke-width: 2; stroke-dasharray: none; stroke-linecap: butt; stroke-dashoffset: 0; stroke-linejoin: miter; stroke-miterlimit: 10; is-custom-font: none; font-file-url: none; fill: none; fill-rule: nonzero; opacity: 1;" vector-effect="non-scaling-stroke" transform=" translate(-111.3, -8.8)" d="M 0 1 C 15.9 1 15.9 16.6 31.8 16.6 C 47.7 16.6 47.7 1 63.6 1 C 79.5 1 79.5 16.6 95.4 16.6 C 111.3 16.6 111.3 1 127.2 1 C 143.1 1 143.1 16.6 159 16.6 C 174.9 16.6 174.9 1 190.8 1 C 206.7 1 206.7 16.6 222.6 16.6" stroke-linecap="round"/>
</g>
<g transform="matrix(0.2702 0 0 0.2702 160.9575 25)" id="558689">
<path style="stroke: rgb(153,15,17); stroke-width: 2; stroke-dasharray: none; stroke-linecap: butt; stroke-dashoffset: 0; stroke-linejoin: miter; stroke-miterlimit: 10; is-custom-font: none; font-file-url: none; fill: none; fill-rule: nonzero; opacity: 1;" vector-effect="non-scaling-stroke" transform=" translate(-111.3, -8.8)" d="M 0 1 C 15.9 1 15.9 16.6 31.8 16.6 C 47.7 16.6 47.7 1 63.6 1 C 79.5 1 79.5 16.6 95.4 16.6 C 111.3 16.6 111.3 1 127.2 1 C 143.1 1 143.1 16.6 159 16.6 C 174.9 16.6 174.9 1 190.8 1 C 206.7 1 206.7 16.6 222.6 16.6" stroke-linecap="round"/>
</g>
<g transform="matrix(0.2702 0 0 0.2702 160.9575 37.6667)" id="798077">
<path style="stroke: rgb(153,15,17); stroke-width: 2; stroke-dasharray: none; stroke-linecap: butt; stroke-dashoffset: 0; stroke-linejoin: miter; stroke-miterlimit: 10; is-custom-font: none; font-file-url: none; fill: none; fill-rule: nonzero; opacity: 1;" vector-effect="non-scaling-stroke" transform=" translate(-111.3, -8.8)" d="M 0 1 C 15.9 1 15.9 16.6 31.8 16.6 C 47.7 16.6 47.7 1 63.6 1 C 79.5 1 79.5 16.6 95.4 16.6 C 111.3 16.6 111.3 1 127.2 1 C 143.1 1 143.1 16.6 159 16.6 C 174.9 16.6 174.9 1 190.8 1 C 206.7 1 206.7 16.6 222.6 16.6" stroke-linecap="round"/>
</g>
</svg>